<svg xmlns="http://www.w3.org/2000/svg" width="64" height="64" viewBox="0 0 64 64" fill="none">
  <rect width="64" height="64" rx="18" fill="url(#bg)"/>
  <path d="M18 21.5C18 19.567 19.567 18 21.5 18H42.5C44.433 18 46 19.567 46 21.5V42.5C46 44.433 44.433 46 42.5 46H21.5C19.567 46 18 44.433 18 42.5V21.5Z" fill="white" fill-opacity="0.12" stroke="white" stroke-opacity="0.28" stroke-width="1.5"/>
  <path d="M24 25H40" stroke="white" stroke-width="3" stroke-linecap="round"/>
  <path d="M24 32H36" stroke="white" stroke-width="3" stroke-linecap="round"/>
  <path d="M24 39H31" stroke="white" stroke-width="3" stroke-linecap="round"/>
  <path d="M39.5 35.5L43 39L50 31" stroke="#A7F3D0" stroke-width="3.2" stroke-linecap="round" stroke-linejoin="round"/>
  <path d="M32 8C45.255 8 56 18.745 56 32C56 45.255 45.255 56 32 56C18.745 56 8 45.255 8 32" stroke="white" stroke-opacity="0.25" stroke-width="3" stroke-linecap="round"/>
  <path d="M32 8C40.83 8 48.55 12.768 52.72 19.875" stroke="#A7F3D0" stroke-width="3" stroke-linecap="round"/>
  <defs>
    <linearGradient id="bg" x1="8" y1="7" x2="57" y2="58" gradientUnits="userSpaceOnUse">
      <stop stop-color="#2563EB"/>
      <stop offset="0.52" stop-color="#0F766E"/>
      <stop offset="1" stop-color="#0F172A"/>
    </linearGradient>
  </defs>
</svg>
