<svg xmlns="http://www.w3.org/2000/svg" width="286" height="64" viewBox="0 0 286 64" fill="none">
  <title>framework360</title>
  <rect x="4" y="8" width="48" height="48" rx="16" fill="url(#markBg)"/>
  <rect x="4" y="8" width="48" height="48" rx="16" stroke="rgba(255,255,255,0.35)" stroke-width="1"/>
  <path d="M20 22.5C20 20.567 21.567 19 23.5 19H34.5C36.433 19 38 20.567 38 22.5V41.5C38 43.433 36.433 45 34.5 45H23.5C21.567 45 20 43.433 20 41.5V22.5Z" fill="white" fill-opacity="0.14" stroke="white" stroke-opacity="0.42" stroke-width="1.6"/>
  <path d="M25 26H33" stroke="white" stroke-width="2.4" stroke-linecap="round"/>
  <path d="M25 32H31.5" stroke="white" stroke-width="2.4" stroke-linecap="round"/>
  <path d="M25 38H29" stroke="white" stroke-width="2.4" stroke-linecap="round"/>
  <circle cx="38" cy="37" r="9" fill="#22C55E"/>
  <path d="M34.4 37.1L37.1 39.8L42.4 33.7" stroke="white" stroke-width="2.6" stroke-linecap="round" stroke-linejoin="round"/>
  <path d="M28 14C37.941 14 46 22.059 46 32" stroke="white" stroke-opacity="0.28" stroke-width="2.4" stroke-linecap="round"/>
  <path d="M28 50C18.059 50 10 41.941 10 32" stroke="white" stroke-opacity="0.22" stroke-width="2.4" stroke-linecap="round"/>
  <text x="66" y="40" fill="#16A34A" font-family="Inter, Segoe UI, Arial, sans-serif" font-size="28" font-weight="800" letter-spacing="-1.25">framework360</text>
  <defs>
    <linearGradient id="markBg" x1="8" y1="10" x2="52" y2="56" gradientUnits="userSpaceOnUse">
      <stop stop-color="#0F172A"/>
      <stop offset="0.48" stop-color="#0F766E"/>
      <stop offset="1" stop-color="#16A34A"/>
    </linearGradient>
  </defs>
</svg>
