<svg xmlns="http://www.w3.org/2000/svg" width="256" height="64" viewBox="0 0 256 64" fill="none">
  <rect x="4" y="8" width="48" height="48" rx="14" fill="url(#markBg)"/>
  <path d="M18 23.5C18 21.567 19.567 20 21.5 20H34.5C36.433 20 38 21.567 38 23.5V40.5C38 42.433 36.433 44 34.5 44H21.5C19.567 44 18 42.433 18 40.5V23.5Z" fill="white" fill-opacity="0.13" stroke="white" stroke-opacity="0.3" stroke-width="1.5"/>
  <path d="M23 26H33" stroke="white" stroke-width="2.5" stroke-linecap="round"/>
  <path d="M23 32H31" stroke="white" stroke-width="2.5" stroke-linecap="round"/>
  <path d="M23 38H28" stroke="white" stroke-width="2.5" stroke-linecap="round"/>
  <path d="M37.5 36L40.2 38.7L46 31.8" stroke="#A7F3D0" stroke-width="3" stroke-linecap="round" stroke-linejoin="round"/>
  <path d="M28 14C37.941 14 46 22.059 46 32C46 41.941 37.941 50 28 50C18.059 50 10 41.941 10 32" stroke="white" stroke-opacity="0.25" stroke-width="2.5" stroke-linecap="round"/>
  <path d="M28 14C34.621 14 40.41 17.576 43.538 22.906" stroke="#A7F3D0" stroke-width="2.5" stroke-linecap="round"/>
  <text x="66" y="39" fill="currentColor" font-family="Inter, Segoe UI, Arial, sans-serif" font-size="26" font-weight="800" letter-spacing="-1.2">Framework</text>
  <text x="198" y="39" fill="#14B8A6" font-family="Inter, Segoe UI, Arial, sans-serif" font-size="26" font-weight="800" letter-spacing="-1.2">360</text>
  <defs>
    <linearGradient id="markBg" x1="10" y1="10" x2="50" y2="54" gradientUnits="userSpaceOnUse">
      <stop stop-color="#2563EB"/>
      <stop offset="0.55" stop-color="#0F766E"/>
      <stop offset="1" stop-color="#0F172A"/>
    </linearGradient>
  </defs>
</svg>
